<svg width="60" height="52" viewBox="0 0 60 52" fill="none" xmlns="http://www.w3.org/2000/svg">
<path d="M27.6541 0C22.8541 0 18.9268 3.96458 18.9268 8.81018C18.9268 9.14056 19.0362 9.41588 19.1452 9.63614H18.9268V12.3893H8.72727C3.92727 12.3893 0 16.3539 0 21.1995V35.4601C0 39.7551 3.05455 43.3349 7.09091 44.1058V49.7767C7.09091 50.4374 7.47294 51.0436 8.12749 51.3189C8.34567 51.429 8.56364 51.4286 8.72727 51.4286C9.16364 51.4286 9.54524 51.2642 9.87251 50.9339C14.1271 46.6389 19.8004 44.2703 25.8004 44.2703H32.3459C37.1459 44.2703 41.0732 40.3057 41.0732 35.4601V18.4463C41.0732 13.6007 37.1459 9.63614 32.3459 9.63614H21.9268C22.0905 9.41588 22.1452 9.0855 22.1452 8.81018C22.1452 5.78168 24.5998 3.30382 27.5998 3.30382H51.2727C54.2727 3.30382 56.7273 5.78168 56.7273 8.81018V23.0708C56.7273 26.0993 54.2727 28.5772 51.2727 28.5772C50.3455 28.5772 49.6364 29.293 49.6364 30.2291V33.7534C48.4364 32.8723 47.1816 32.047 45.8725 31.3863C45.0543 31.0008 44.0725 31.2755 43.6907 32.1015C43.2543 32.9274 43.582 33.9185 44.4002 34.304C46.5275 35.4053 48.4366 36.7816 50.1275 38.4886C50.4548 38.819 50.8364 38.9844 51.2727 38.9844C51.4909 38.9844 51.7089 38.9298 51.8725 38.8747C52.4725 38.5994 52.9091 37.9933 52.9091 37.3325V31.7164C56.9455 30.9455 60 27.3658 60 23.0708V8.81018C60 3.96458 56.0727 0 51.2727 0H27.6541ZM8.72727 15.6931H32.3459C35.3459 15.6931 37.8004 18.171 37.8004 21.1995V35.4601C37.8004 38.4886 35.3459 40.9665 32.3459 40.9665H25.8004C20.1822 40.9665 14.7818 42.7838 10.3636 46.1427V42.6184C10.3636 41.6823 9.65455 40.9665 8.72727 40.9665C5.72727 40.9665 3.27273 38.4886 3.27273 35.4601V21.1995C3.27273 18.171 5.72727 15.6931 8.72727 15.6931ZM11.0732 22.5202C10.1459 22.5202 9.43679 23.236 9.43679 24.1721C9.43679 25.1082 10.2004 25.824 11.0732 25.824H30C30.9273 25.824 31.6364 25.1082 31.6364 24.1721C31.6364 23.236 30.9273 22.5202 30 22.5202H11.0732ZM11.0732 29.6784C10.1459 29.6784 9.43679 30.3943 9.43679 31.3303C9.43679 32.2664 10.2004 32.9823 11.0732 32.9823H18.1641C19.0913 32.9823 19.8004 32.2664 19.8004 31.3303C19.8004 30.3943 19.0913 29.6784 18.1641 29.6784H11.0732Z" fill="url(#paint0_linear)"/>
<defs>
<linearGradient id="paint0_linear" x1="60" y1="25.7143" x2="2.91967e-07" y2="25.7143" gradientUnits="userSpaceOnUse">
<stop stop-color="#E2B627"/>
<stop offset="0.520833" stop-color="#DCAD19"/>
<stop offset="1" stop-color="#E8CA44"/>
</linearGradient>
</defs>
</svg>
