<svg width="51" height="51" viewBox="0 0 51 51" fill="none" xmlns="http://www.w3.org/2000/svg">
<path d="M25.5 0C11.4717 0 0 11.4717 0 25.5C0 39.5283 11.4717 51 25.5 51C39.5283 51 51 39.5283 51 25.5C51 11.4717 39.5283 0 25.5 0ZM25.5 4.25C37.1875 4.25 46.75 13.8125 46.75 25.5C46.75 37.1875 37.1875 46.75 25.5 46.75C13.8125 46.75 4.25 37.1875 4.25 25.5C4.25 13.8125 13.8125 4.25 25.5 4.25ZM38.25 12.75L21.4492 21.4492L12.75 38.25L29.5508 29.5508L38.25 12.75ZM25.5 23.1758C26.7783 23.1758 27.8242 24.2217 27.8242 25.5C27.8242 26.7783 26.7783 27.8242 25.5 27.8242C24.2217 27.8242 23.1758 26.7783 23.1758 25.5C23.1758 24.2217 24.2217 23.1758 25.5 23.1758Z" fill="url(#paint0_linear)"/>
<defs>
<linearGradient id="paint0_linear" x1="51" y1="25.5" x2="2.48172e-07" y2="25.5" gradientUnits="userSpaceOnUse">
<stop stop-color="#E2B627"/>
<stop offset="0.520833" stop-color="#DCAD19"/>
<stop offset="1" stop-color="#E8CA44"/>
</linearGradient>
</defs>
</svg>
