<svg width="15" height="11" viewBox="0 0 15 11" fill="none" xmlns="http://www.w3.org/2000/svg">
<path d="M7.50027 7.45805C8.62993 7.45805 9.5457 6.54228 9.5457 5.41262C9.5457 4.28296 8.62993 3.36719 7.50027 3.36719C6.3706 3.36719 5.45483 4.28296 5.45483 5.41262C5.45483 6.54228 6.3706 7.45805 7.50027 7.45805Z" fill="#F44336"/>
<path d="M5.14407 2.95558L4.2001 1.9707C3.29398 2.83933 2.72705 4.05943 2.72705 5.41385C2.72705 6.76826 3.29398 7.98836 4.2001 8.85699L5.14407 7.87212C4.49635 7.25099 4.09067 6.37963 4.09067 5.41385C4.09067 4.44806 4.49635 3.57637 5.14407 2.95558Z" fill="#F44336"/>
<path d="M10.7997 1.9707L9.85571 2.95558C10.5034 3.57671 10.9091 4.44806 10.9091 5.41385C10.9091 6.37963 10.5034 7.25099 9.85571 7.87212L10.7997 8.85699C11.7058 7.98836 12.2727 6.76826 12.2727 5.41385C12.2727 4.05943 11.7058 2.83933 10.7997 1.9707Z" fill="#F44336"/>
<path d="M3.2594 0.988625L2.31202 0C0.888058 1.36498 0 3.28496 0 5.41324C0 7.54151 0.888058 9.46149 2.31202 10.8265L3.2594 9.83785C2.09384 8.72036 1.36362 7.15185 1.36362 5.41324C1.36362 3.67462 2.09384 2.10611 3.2594 0.988625Z" fill="#F44336"/>
<path d="M12.6881 0L11.7407 0.988625C12.9063 2.10611 13.6365 3.67462 13.6365 5.41324C13.6365 7.15185 12.9063 8.72036 11.7407 9.83785L12.6881 10.8265C14.1121 9.46149 15.0001 7.54151 15.0001 5.41324C15.0001 3.28496 14.1121 1.36498 12.6881 0Z" fill="#F44336"/>
</svg>
