<svg width="60" height="62" viewBox="0 0 60 62" fill="none" xmlns="http://www.w3.org/2000/svg">
<path d="M20 0C19.4693 0 18.9867 0.317376 18.776 0.807065C18.564 1.2981 18.666 1.86832 19.0286 2.25873L34.0286 18.3581C34.2806 18.6291 34.6319 18.7826 34.9999 18.7826H54.6666V36.2236H57.3332V18.7826H58.6666C59.2052 18.7826 59.693 18.455 59.8983 17.9546C60.105 17.4528 59.9906 16.8761 59.6093 16.4924L43.6093 0.393051C43.36 0.140828 43.0213 0 42.6666 0H20ZM21.8958 9.26029L18.875 14.0372C18.5576 14.5403 18.6054 15.1914 18.9948 15.6408L29.4947 27.7154C29.7481 28.0051 30.116 28.1739 30.5 28.1739H49.3333C50.0706 28.1739 50.6666 27.5729 50.6666 26.8323V21.4658H34.9999C33.8999 21.4658 32.8367 21.004 32.0807 20.195L21.8958 9.26029ZM3.49999 14.7578C1.57066 14.7578 0 16.3459 0 18.2952V50.1271C0 52.0765 1.57066 53.6646 3.49999 53.6646H47.1666C49.0959 53.6646 50.6666 52.0765 50.6666 50.1271V30.8571H49.3333H47.9999V45.6149H2.66666V18.2952C2.66666 17.8257 3.04 17.441 3.49999 17.441H16.888C16.2693 16.6655 15.9834 15.709 16.0234 14.7578H3.49999ZM55.9999 38.9068C54.5266 38.9068 53.3333 40.1076 53.3333 41.5901C53.3333 43.0725 55.9999 46.9565 55.9999 46.9565C55.9999 46.9565 58.6666 43.0725 58.6666 41.5901C58.6666 40.1076 57.4732 38.9068 55.9999 38.9068ZM25.3333 48.2981C26.0693 48.2981 26.6666 48.8992 26.6666 49.6397C26.6666 50.3803 26.0693 50.9814 25.3333 50.9814C24.5973 50.9814 24 50.3803 24 49.6397C24 48.8992 24.5973 48.2981 25.3333 48.2981ZM19.7448 56.3478C19.1794 57.8907 17.7013 59.0311 16 59.0311C15.2626 59.0311 14.6666 59.6321 14.6666 60.3727C14.6666 61.1132 15.2626 61.7143 16 61.7143H34.6666C35.4039 61.7143 35.9999 61.1132 35.9999 60.3727C35.9999 59.6321 35.4039 59.0311 34.6666 59.0311C32.9653 59.0311 31.4872 57.8907 30.9218 56.3478H19.7448Z" fill="url(#paint0_linear)"/>
<defs>
<linearGradient id="paint0_linear" x1="60" y1="30.8571" x2="2.91967e-07" y2="30.8571" gradientUnits="userSpaceOnUse">
<stop stop-color="#E2B627"/>
<stop offset="0.520833" stop-color="#DCAD19"/>
<stop offset="1" stop-color="#E8CA44"/>
</linearGradient>
</defs>
</svg>
